#!OML:ASF X:\für Bonn\!DataBase\2005_08_10_Bjorn_Final\c3d\bjorn.ASF
:FULLY-SPECIFIED
:DEGREES
507
root -0.137399 1.64094 11.793 -2080.43 -8.39348 196.565
lowerback 14.6714 6.19416 -7.85792
upperback 19.3977 4.51008 -3.81043
thorax 13.1477 -0.425894 -0.592932
lowerneck 15.7508 -0.600957 0.284987
upperneck 22.5434 -5.18158 3.43325
head 4.48355 -4.22343 0.941716
rclavicle 2.54444e-014 -1.59028e-014
rhumerus 16.0494 -7.56475 -79.7027
rradius 25.241
rwrist -7.36985
rhand -20.6431 4.11694
rfingers 7.12502
rthumb 5.71896 -25.7859
lclavicle 2.54444e-014 -1.59028e-014
lhumerus 28.3205 -39.5933 70.2881
lradius 40.0966
lwrist -30.4303
lhand -54.3744 -32.4128
lfingers 7.12502
lthumb -26.7817 715.711
rfemur -362.348 -15.5437 368.696
rtibia 25.4303
rfoot 12.9332 6.45554
rtoes -9.79188
lfemur -21.3507 4.1105 -14.5824
ltibia 66.1799
lfoot 25.6577 7.03599
ltoes -10.3396
508
root -0.144977 1.64003 11.7992 -2080.16 -8.40908 196.394
lowerback 14.1082 6.02513 -7.96941
upperback 18.8491 4.49305 -4.03463
thorax 12.7697 -0.308153 -0.709538
lowerneck 15.4849 -0.637471 -0.115244
upperneck 22.3581 -5.06477 2.9591
head 4.4532 -4.15705 0.859086
rclavicle 2.54444e-014 -1.30403e-013
rhumerus 15.6184 -5.19634 -78.5629
rradius 26.4052
rwrist -7.9977
rhand -20.101 4.06303
rfingers 7.12502
rthumb 6.24229 -25.825
lclavicle 2.54444e-014 -1.30403e-013
lhumerus 28.2926 -40.8873 69.5509
lradius 41.8176
lwrist -30.4795
lhand -54.1363 -33.0966
lfingers 7.12502
lthumb -26.5538 715.062
rfemur -362.491 -15.6567 368.801
rtibia 25.2631
rfoot 13.0578 6.58238
rtoes -8.25859
lfemur -21.5997 4.29342 -14.6014
ltibia 66.1994
lfoot 25.6055 7.06977
ltoes -10.5475
509
root -0.153216 1.63941 11.8053 -2079.89 -8.41833 196.273
lowerback 13.5457 5.8551 -8.04077
upperback 18.3714 4.45951 -4.24914
thorax 12.494 -0.212534 -0.843977
lowerneck 14.9965 -0.721032 -0.502331
upperneck 22.08 -4.96205 2.50442
head 4.42622 -4.07049 0.778779
rclavicle -3.49861e-014 9.54166e-015
rhumerus 15.2868 -2.80052 -77.4047
rradius 27.7193
rwrist -8.4311
rhand -19.5142 4.16561
rfingers 7.12502
rthumb 6.80876 -25.7049
lclavicle -3.49861e-014 9.54166e-015
lhumerus 28.6615 -42.2542 68.4057
lradius 43.5749
lwrist -30.4076
lhand -53.7357 -33.2163
lfingers 7.12502
lthumb -26.1703 715
rfemur -362.61 -15.7471 368.895
rtibia 25.1228
rfoot 13.2659 6.68052
rtoes -6.59838
lfemur -21.8634 4.41832 -14.6287
ltibia 66.2194
lfoot 25.5516 7.14856
ltoes -10.6524
510
root -0.162564 1.63866 11.8135 -2079.62 -8.41823 196.132
lowerback 12.9596 5.69359 -8.08937
upperback 17.9488 4.42894 -4.43638
thorax 12.3073 -0.128898 -0.965449
lowerneck 14.3137 -0.845046 -0.928146
upperneck 21.7251 -4.87781 2.06748
head 4.40562 -3.97444 0.709265
rclavicle 3.49861e-014 -7.95139e-014
rhumerus 15.0264 -0.129685 -76.0244
rradius 29.1739
rwrist -8.78697
rhand -19.0945 4.35799
rfingers 7.12502
rthumb 7.21398 -25.499
lclavicle 3.49861e-014 -7.95139e-014
lhumerus 29.2738 -43.6648 66.8804
lradius 45.5134
lwrist -30.2708
lhand -53.2291 -32.619
lfingers 7.12502
lthumb -25.6852 715.668
rfemur -362.739 -15.8109 368.981
rtibia 25.0168
rfoot 13.5403 6.83894
rtoes -5.37707
lfemur -22.1215 4.56124 -14.6628
ltibia 66.2231
lfoot 25.5252 7.1274
ltoes -11.132
511
root -0.172549 1.63881 11.8218 -2079.34 -8.41899 196.008
lowerback 12.3628 5.52025 -8.1393
upperback 17.5532 4.37766 -4.61106
thorax 12.1658 -0.0637467 -1.07416
lowerneck 14.046 -0.992493 -1.32861
upperneck 20.5324 -4.7887 1.63223
head 4.59243 -3.86905 0.686381
rclavicle 5.40694e-014 -9.70069e-014
rhumerus 14.9058 2.44546 -74.6141
rradius 30.705
rwrist -9.04269
rhand -18.6091 4.63057
rfingers 7.12502
rthumb 7.68242 -25.2099
lclavicle 5.40694e-014 -9.70069e-014
lhumerus 30.0347 -45.0645 65.0934
lradius 47.6074
lwrist -29.8979
lhand -52.6949 -31.8473
lfingers 7.12502
lthumb -25.1734 716.513
rfemur -362.888 -15.8859 369.049
rtibia 24.9497
rfoot 13.9134 7.05902
rtoes -4.27651
lfemur -22.3808 4.65978 -14.7133
ltibia 66.2141
lfoot 25.5058 7.17216
ltoes -11.2385
512
root -0.182711 1.63914 11.8335 -2079.05 -8.4207 195.877
lowerback 11.8072 5.36938 -8.14966
upperback 17.1519 4.34556 -4.78157
thorax 11.9988 0.0122206 -1.20245
lowerneck 13.3481 -1.17643 -1.76625
upperneck 19.9451 -4.76517 1.31675
head 4.48151 -3.77748 0.657132
rclavicle 5.40694e-014 -1.11319e-014
rhumerus 14.7968 4.7946 -73.2564
rradius 32.3257
rwrist -9.21917
rhand -18.0589 5.0238
rfingers 7.12502
rthumb 8.21353 -24.7965
lclavicle 5.40694e-014 -1.11319e-014
lhumerus 30.9494 -46.5158 63.1101
lradius 49.8244
lwrist -29.1907
lhand -52.1887 -31.3208
lfingers 7.12502
lthumb -24.6884 717.106
rfemur -363.062 -15.9373 369.113
rtibia 24.9176
rfoot 14.3454 7.35884
rtoes -3.60484
lfemur -22.6365 4.76746 -14.768
ltibia 66.1852
lfoot 25.4863 7.22089
ltoes -11.3965
513
root -0.193235 1.63884 11.8453 -2078.8 -8.41792 195.768
lowerback 11.3527 5.2047 -8.15154
upperback 16.7246 4.27757 -4.93659
thorax 11.7453 0.0726861 -1.31917
lowerneck 12.731 -1.36052 -2.24179
upperneck 19.2475 -4.7459 1.02535
head 4.32079 -3.68709 0.646588
rclavicle -7.95139e-014 1.27222e-013
rhumerus 14.7198 6.95385 -71.9718
rradius 33.9864
rwrist -9.22693
rhand -17.4239 5.47699
rfingers 7.12502
rthumb 8.82632 -24.3184
lclavicle -7.95139e-014 1.27222e-013
lhumerus 31.9197 -47.9579 61.0102
lradius 52.0873
lwrist -28.0418
lhand -51.7617 -31.091
lfingers 7.12502
lthumb -24.2791 717.392
rfemur -363.237 -15.9179 369.168
rtibia 24.9082
rfoot 14.7748 7.60404
rtoes -3.07738
lfemur -22.8648 4.842 -14.8314
ltibia 66.1424
lfoot 25.4846 7.20795
ltoes -11.6265
